{
  "accessors": [
    {
      "bufferView": 2,
      "componentType": 5126,
      "count": 65532,
      "max": [
        217.43218994140625,
        295.96685791015625,
        622.36962890625
      ],
      "min": [
        -311.51080322265625,
        -434.7897033691406,
        -945.335693359375
      ],
      "type": "VEC3"
    },
    {
      "bufferView": 2,
      "byteOffset": 786384,
      "componentType": 5126,
      "count": 65532,
      "max": [
        1.0,
        1.0,
        1.0
      ],
      "min": [
        -1.0,
        -1.0,
        -1.0
      ],
      "type": "VEC3"
    },
    {
      "bufferView": 3,
      "componentType": 5126,
      "count": 65532,
      "max": [
        0.9999999403953552,
        0.9999975562095642,
        1.0,
        1.0
      ],
      "min": [
        -0.9999996423721313,
        -0.9999998807907104,
        -0.9999405741691589,
        -1.0
      ],
      "type": "VEC4"
    },
    {
      "bufferView": 1,
      "componentType": 5126,
      "count": 65532,
      "max": [
        0.9525175094604492,
        0.8669747710227966
      ],
      "min": [
        0.0019279018742963672,
        0.0013484954833984375
      ],
      "type": "VEC2"
    },
    {
      "bufferView": 0,
      "componentType": 5125,
      "count": 176709,
      "type": "SCALAR"
    },
    {
      "bufferView": 2,
      "byteOffset": 1572768,
      "componentType": 5126,
      "count": 65532,
      "max": [
        323.1462707519531,
        472.6016845703125,
        792.4168701171875
      ],
      "min": [
        -287.9727478027344,
        -458.6916809082031,
        -997.307373046875
      ],
      "type": "VEC3"
    },
    {
      "bufferView": 2,
      "byteOffset": 2359152,
      "componentType": 5126,
      "count": 65532,
      "max": [
        0.9999555349349976,
        0.9999962449073792,
        0.9998093843460083
      ],
      "min": [
        -0.9999949336051941,
        -0.999979555606842,
        -0.9999522566795349
      ],
      "type": "VEC3"
    },
    {
      "bufferView": 3,
      "byteOffset": 1048512,
      "componentType": 5126,
      "count": 65532,
      "max": [
        0.9999994039535522,
        0.9999948740005493,
        0.9999681115150452,
        1.0
      ],
      "min": [
        -0.9999715685844421,
        -0.9999744296073914,
        -0.9999909996986389,
        -1.0
      ],
      "type": "VEC4"
    },
    {
      "bufferView": 1,
      "byteOffset": 524256,
      "componentType": 5126,
      "count": 65532,
      "max": [
        0.9411324262619019,
        0.99807208776474
      ],
      "min": [
        0.0019279018742963672,
        0.001831650733947754
      ],
      "type": "VEC2"
    },
    {
      "bufferView": 0,
      "byteOffset": 706836,
      "componentType": 5125,
      "count": 352269,
      "type": "SCALAR"
    },
    {
      "bufferView": 2,
      "byteOffset": 3145536,
      "componentType": 5126,
      "count": 65532,
      "max": [
        311.6991271972656,
        481.99407958984375,
        807.7747192382813
      ],
      "min": [
        -324.03546142578125,
        -443.663330078125,
        -999.838623046875
      ],
      "type": "VEC3"
    },
    {
      "bufferView": 2,
      "byteOffset": 3931920,
      "componentType": 5126,
      "count": 65532,
      "max": [
        0.9999992251396179,
        0.999995768070221,
        0.99922114610672
      ],
      "min": [
        -0.9999918341636658,
        -0.9999207258224487,
        -0.9999024868011475
      ],
      "type": "VEC3"
    },
    {
      "bufferView": 3,
      "byteOffset": 2097024,
      "componentType": 5126,
      "count": 65532,
      "max": [
        0.9999937415122986,
        0.9998142123222351,
        0.9999971389770508,
        1.0
      ],
      "min": [
        -0.9999830722808838,
        -0.9995376467704773,
        -0.9998101592063904,
        -1.0
      ],
      "type": "VEC4"
    },
    {
      "bufferView": 1,
      "byteOffset": 1048512,
      "componentType": 5126,
      "count": 65532,
      "max": [
        0.9946632385253906,
        0.99807208776474
      ],
      "min": [
        0.07133237272500992,
        0.005543768405914307
      ],
      "type": "VEC2"
    },
    {
      "bufferView": 0,
      "byteOffset": 2115912,
      "componentType": 5125,
      "count": 349728,
      "type": "SCALAR"
    },
    {
      "bufferView": 2,
      "byteOffset": 4718304,
      "componentType": 5126,
      "count": 21513,
      "max": [
        273.99432373046875,
        296.783203125,
        638.740478515625
      ],
      "min": [
        -324.6668701171875,
        -455.876220703125,
        -957.2568359375
      ],
      "type": "VEC3"
    },
    {
      "bufferView": 2,
      "byteOffset": 4976460,
      "componentType": 5126,
      "count": 21513,
      "max": [
        0.9999887943267822,
        0.9999642968177795,
        0.9999999403953552
      ],
      "min": [
        -0.9999331831932068,
        -0.9998712539672852,
        -0.9999180436134338
      ],
      "type": "VEC3"
    },
    {
      "bufferView": 3,
      "byteOffset": 3145536,
      "componentType": 5126,
      "count": 21513,
      "max": [
        0.9999607801437378,
        0.999895453453064,
        0.9998658895492554,
        1.0
      ],
      "min": [
        -0.9999725222587585,
        -0.9997507333755493,
        -0.9998525381088257,
        1.0
      ],
      "type": "VEC4"
    },
    {
      "bufferView": 1,
      "byteOffset": 1572768,
      "componentType": 5126,
      "count": 21513,
      "max": [
        0.9907342195510864,
        0.9556582570075989
      ],
      "min": [
        0.0019279018742963672,
        0.0031030774116516113
      ],
      "type": "VEC2"
    },
    {
      "bufferView": 0,
      "byteOffset": 3514824,
      "componentType": 5125,
      "count": 106626,
      "type": "SCALAR"
    }
  ],
  "asset": {
    "extras": {
      "author": "Alienor.org, Conseil des musées (https://sketchfab.com/alienor.org)",
      "license": "CC-BY-NC-ND-4.0 (http://creativecommons.org/licenses/by-nc-nd/4.0/)",
      "source": "https://sketchfab.com/3d-models/costume-dosiris-0687285719554e89a81da48ebd53deb5",
      "title": "Costume d’Osiris"
    },
    "generator": "Sketchfab-12.68.0",
    "version": "2.0"
  },
  "bufferViews": [
    {
      "buffer": 0,
      "byteLength": 3941328,
      "name": "floatBufferViews",
      "target": 34963
    },
    {
      "buffer": 0,
      "byteLength": 1744872,
      "byteOffset": 3941328,
      "byteStride": 8,
      "name": "floatBufferViews",
      "target": 34962
    },
    {
      "buffer": 0,
      "byteLength": 5234616,
      "byteOffset": 5686200,
      "byteStride": 12,
      "name": "floatBufferViews",
      "target": 34962
    },
    {
      "buffer": 0,
      "byteLength": 3489744,
      "byteOffset": 10920816,
      "byteStride": 16,
      "name": "floatBufferViews",
      "target": 34962
    }
  ],
  "buffers": [
    {
      "byteLength": 14410560,
      "uri": "scene.bin"
    }
  ],
  "extensionsRequired": [
    "KHR_materials_pbrSpecularGlossiness"
  ],
  "extensionsUsed": [
    "KHR_materials_pbrSpecularGlossiness"
  ],
  "images": [
    {
      "uri": "textures/material_0_diffuse.jpeg"
    },
    {
      "uri": "textures/material_0_normal.png"
    }
  ],
  "materials": [
    {
      "doubleSided": true,
      "extensions": {
        "KHR_materials_pbrSpecularGlossiness": {
          "diffuseFactor": [
            1.0,
            1.0,
            1.0,
            1.0
          ],
          "diffuseTexture": {
            "index": 0
          },
          "glossinessFactor": 0.4224466463414634,
          "specularFactor": [
            0.0,
            0.0,
            0.0
          ]
        }
      },
      "name": "material_0",
      "normalTexture": {
        "index": 1,
        "scale": 0.7376310720383746
      }
    }
  ],
  "meshes": [
    {
      "name": "Object_0",
      "primitives": [
        {
          "attributes": {
            "NORMAL": 1,
            "POSITION": 0,
            "TANGENT": 2,
            "TEXCOORD_0": 3
          },
          "indices": 4,
          "material": 0,
          "mode": 4
        }
      ]
    },
    {
      "name": "Object_1",
      "primitives": [
        {
          "attributes": {
            "NORMAL": 6,
            "POSITION": 5,
            "TANGENT": 7,
            "TEXCOORD_0": 8
          },
          "indices": 9,
          "material": 0,
          "mode": 4
        }
      ]
    },
    {
      "name": "Object_2",
      "primitives": [
        {
          "attributes": {
            "NORMAL": 11,
            "POSITION": 10,
            "TANGENT": 12,
            "TEXCOORD_0": 13
          },
          "indices": 14,
          "material": 0,
          "mode": 4
        }
      ]
    },
    {
      "name": "Object_3",
      "primitives": [
        {
          "attributes": {
            "NORMAL": 16,
            "POSITION": 15,
            "TANGENT": 17,
            "TEXCOORD_0": 18
          },
          "indices": 19,
          "material": 0,
          "mode": 4
        }
      ]
    }
  ],
  "nodes": [
    {
      "children": [
        1
      ],
      "matrix": [
        0.8860872387886047,
        0.0018835372757165594,
        0.46351465582847595,
        0.0,
        0.45490124821662903,
        0.1883925348520281,
        -0.8703867793083191,
        0.0,
        -0.08896210789680481,
        0.982092022895813,
        0.16607539355754874,
        0.0,
        -13.929800987243652,
        -3.913278102874759,
        14.79047966003418,
        1.0
      ],
      "name": "Sketchfab_model"
    },
    {
      "children": [
        2,
        3,
        4,
        5
      ],
      "name": "loti-osiris.obj.cleaner.materialmerger.gles"
    },
    {
      "mesh": 0,
      "name": "Object_2"
    },
    {
      "mesh": 1,
      "name": "Object_3"
    },
    {
      "mesh": 2,
      "name": "Object_4"
    },
    {
      "mesh": 3,
      "name": "Object_5"
    }
  ],
  "samplers": [
    {
      "magFilter": 9729,
      "minFilter": 9987,
      "wrapS": 10497,
      "wrapT": 10497
    }
  ],
  "scene": 0,
  "scenes": [
    {
      "name": "Sketchfab_Scene",
      "nodes": [
        0
      ]
    }
  ],
  "textures": [
    {
      "sampler": 0,
      "source": 0
    },
    {
      "sampler": 0,
      "source": 1
    }
  ]
}
